# xmcd
# 
# Track frame offsets:
#     150
#     11072
#     22222
#     36867
#     50835
#     62025
#     77807
#     91572
#     100640
#     111807
#     123310
#     136485
# 
# Disc length: 1997
# 
# Revision: 2
# Processed by: cddbd v1.5.2PL0 Copyright (c) Steve Scherf et al.
# Submitted via: fre:ac v1.0.31
# 
DISCID=9b07cb0c
DTITLE=Columbia Blues - Eddie "Blues Man" Kirkland It's The Blues Man!
DYEAR=0
DGENRE=Blues
TTITLE0=Down On My Knees
TTITLE1=Don't Take My Heart
TTITLE2=Daddy, Please Don't Cry
TTITLE3=Have Mercy On Me
TTITLE4=Saturday Night Stomp
TTITLE5=I'm Gonna Forget You
TTITLE6=I Tried
TTITLE7=Man Of Stone
TTITLE8=I'm Goin' To Keep Loving You
TTITLE9=Train Done Gone
TTITLE10=Something's Gone Wrong In My Life
TTITLE11=Baby You Know It's True
EXTD=Eddie Kirkland - vocals, harmonica, guitar\nwith\nThe King Curtis Band:\nKing Curtis, Oliver Nelson - tenor saxphones\nGeorge Stubbs, Herman Foster (#7 - 12 only) - piano\nBilly Butler - guitar\nJimmy Lewis - electric bass\nRay Lucas, Frank Shea (#7 
EXTD=12 only) - drums\n\nRecorded in Englewood Cliffs, NJ on March 9, 1962 (#1 - 6) and December 8, 1961 (#7 - 12).\n\nSupervision by Esmond Edwards\nRecording engineer - Rudy Van Gelder\nDigital Remastering, 1993 - Phil De Lancie (Fantasy Studios, Berk
EXTD=eley)
EXTT0=
EXTT1=
EXTT2=
EXTT3=
EXTT4=
EXTT5=
EXTT6=
EXTT7=
EXTT8=
EXTT9=
EXTT10=
EXTT11=
PLAYORDER=
